<?xml version="1.0" encoding="UTF-8"?>
<svg version="1.1" xmlns="http://www.w3.org/2000/svg" width="100" height="100">
<path d="M0 0 C4.82066769 4.78961669 6.94670547 10.08117849 9.3125 16.375 C9.67150391 17.30183594 10.03050781 18.22867187 10.40039062 19.18359375 C11.277339 21.45196688 12.14349027 23.72384855 13 26 C13.79172607 26.04487549 14.58345215 26.08975098 15.39916992 26.13598633 C18.99624766 26.34767218 22.59171895 26.57986414 26.1875 26.8125 C27.43337891 26.88275391 28.67925781 26.95300781 29.96289062 27.02539062 C31.7659668 27.14624023 31.7659668 27.14624023 33.60546875 27.26953125 C35.26292114 27.37164917 35.26292114 27.37164917 36.95385742 27.47583008 C40.30106565 28.05180636 42.28439607 28.98240932 45 31 C46.5 33.8125 46.5 33.8125 47 37 C45.15859401 41.52704463 42.80335718 44.55624587 39.3125 47.9375 C38.43207031 48.7934375 37.55164063 49.649375 36.64453125 50.53125 C33.6966474 53.28318884 30.69060489 55.944516 27.59375 58.52734375 C25.759259 60.10689997 25.759259 60.10689997 24 63 C24.39076614 65.53606519 24.39076614 65.53606519 25.37109375 68.296875 C25.69787109 69.3384375 26.02464844 70.38 26.36132812 71.453125 C27.07379077 73.63576918 27.78731741 75.81806636 28.50195312 78 C30.31381531 83.78087268 31.66142202 88.08371672 30 94 C28.46974575 96.29538138 27.36091454 96.85563418 24.8125 97.875 C16.86290208 98.22831546 9.49907734 92.44531628 3.09179688 88.3203125 C-0.92556587 85.78743665 -0.92556587 85.78743665 -5.484375 84.86328125 C-9.44463854 86.65277922 -12.96759175 89.00900833 -16.5625 91.4375 C-18.06260412 92.43799643 -19.56386847 93.43675591 -21.06640625 94.43359375 C-21.72584229 94.87759521 -22.38527832 95.32159668 -23.06469727 95.77905273 C-27.5048417 98.58025903 -29.99918953 99.30786805 -35.1640625 98.47265625 C-37.615267 97.84160148 -38.67983473 97.17438985 -40 95 C-41.19322564 90.9109707 -40.78725581 88.26518256 -39.56640625 84.21875 C-39.24736328 83.12949219 -38.92832031 82.04023437 -38.59960938 80.91796875 C-38.25736328 79.79003906 -37.91511719 78.66210938 -37.5625 77.5 C-36.89116017 75.26220055 -36.22556843 73.02266668 -35.56640625 70.78125 C-35.26677979 69.79189453 -34.96715332 68.80253906 -34.65844727 67.78320312 C-34.00878413 65.03712982 -33.74928109 62.80696826 -34 60 C-35.66929393 57.68620207 -35.66929393 57.68620207 -38 55.625 C-39.22396484 54.46291016 -39.22396484 54.46291016 -40.47265625 53.27734375 C-43.38475571 50.65330359 -46.33715565 48.08778174 -49.37109375 45.60546875 C-51.17936707 43.82321375 -52.10287872 42.37096338 -53 40 C-52.67813268 33.88452088 -52.67813268 33.88452088 -50.5625 31.125 C-43.06760664 25.72867678 -29.86604147 27.90838763 -21 28 C-20.85304687 27.45214844 -20.70609375 26.90429688 -20.5546875 26.33984375 C-18.98653425 20.79723313 -17.09918396 15.42210482 -15 10.0625 C-14.7510498 9.4120874 -14.50209961 8.7616748 -14.24560547 8.09155273 C-12.9456542 4.83316145 -11.8538963 2.13299021 -9 0 C-5.34946515 -1.21684495 -3.68135956 -1.10440787 0 0 Z " fill="#B2D29A" transform="translate(53,1)"/>
<path d="M0 0 C2.89143519 2.47994759 4.05379888 5.04114271 5.48046875 8.54296875 C5.87903076 9.51000732 6.27759277 10.4770459 6.68823242 11.47338867 C7.43036987 13.31187378 7.43036987 13.31187378 8.1875 15.1875 C9.775625 19.085625 11.36375 22.98375 13 27 C27.85 27.495 27.85 27.495 43 28 C43 30 43 30 41.671875 31.33984375 C40.72054687 32.13068359 40.72054687 32.13068359 39.75 32.9375 C37.09357576 35.18597338 34.48128631 37.46142056 31.9375 39.8359375 C31.14714355 40.57275757 31.14714355 40.57275757 30.34082031 41.32446289 C29.29551256 42.30223311 28.25309626 43.28310543 27.21386719 44.26733398 C24.60265358 46.69800328 22.22216078 48.4977299 19 50 C19.95340607 53.56383727 20.91359076 57.12581415 21.875 60.6875 C22.14441406 61.69490234 22.41382813 62.70230469 22.69140625 63.74023438 C22.95566406 64.71669922 23.21992187 65.69316406 23.4921875 66.69921875 C23.73308105 67.59471436 23.97397461 68.49020996 24.22216797 69.4128418 C24.95160761 72.04058552 24.95160761 72.04058552 26.15673828 74.58129883 C27.08611781 77.24700901 26.96443226 78.3960329 26 81 C22.56149291 79.04343098 19.12437051 77.08444216 15.6875 75.125 C14.71103516 74.56941406 13.73457031 74.01382813 12.72851562 73.44140625 C11.32182617 72.63896484 11.32182617 72.63896484 9.88671875 71.8203125 C9.02264404 71.32805176 8.15856934 70.83579102 7.26831055 70.32861328 C5.47589565 69.27874547 3.72837768 68.15225179 2 67 C-1.76187777 67.33027029 -4.33136215 68.58336555 -7.46875 70.6171875 C-8.28730469 71.14183594 -9.10585938 71.66648437 -9.94921875 72.20703125 C-10.79097656 72.75746094 -11.63273437 73.30789062 -12.5 73.875 C-14.17684908 74.95609259 -15.85392579 76.03683222 -17.53125 77.1171875 C-18.30855469 77.62088867 -19.08585937 78.12458984 -19.88671875 78.64355469 C-22.22852206 80.14668075 -24.59923134 81.59299214 -27 83 C-24.54320467 71.53495511 -21.94763364 60.05337419 -18 49 C-18.56203125 48.76667969 -19.1240625 48.53335938 -19.703125 48.29296875 C-22.56734142 46.68062924 -24.47252021 44.6806438 -26.75 42.3125 C-30.54988449 38.42241053 -34.43866357 34.77384977 -38.6015625 31.27734375 C-39.06304687 30.85582031 -39.52453125 30.43429688 -40 30 C-40 29.67 -40 29.34 -40 29 C-29.97112823 28.0232751 -20.06604235 27.89150374 -10 28 C-9.87761963 27.28884033 -9.75523926 26.57768066 -9.62915039 25.8449707 C-8.97817483 22.90130823 -8.04463074 20.28153384 -6.93359375 17.48046875 C-6.3293457 15.9480957 -6.3293457 15.9480957 -5.71289062 14.38476562 C-5.29201172 13.32966797 -4.87113281 12.27457031 -4.4375 11.1875 C-4.01275391 10.11306641 -3.58800781 9.03863281 -3.15039062 7.93164062 C-2.10399344 5.28625448 -1.05374756 2.64246489 0 0 Z " fill="#242524" transform="translate(48,9)"/>
</svg>
